<mxfile host="app.diagrams.net" agent="Mozilla/5.0 (X11; Linux x86_64) AppleWebKit/537.36 (KHTML, like Gecko) Chrome/134.0.0.0 Safari/537.36" version="26.2.2">
  <diagram name="Page-1" id="fRQzvSVh8p-MSL4JU0pW">
    <mxGraphModel dx="1428" dy="1810" grid="1" gridSize="10" guides="1" tooltips="1" connect="1" arrows="1" fold="1" page="1" pageScale="1" pageWidth="850" pageHeight="1100" math="0" shadow="0">
      <root>
        <mxCell id="0" />
        <mxCell id="1" parent="0" />
        <mxCell id="eINwbxXHJOCDrQ6c3ILT-73" value="" style="rounded=0;whiteSpace=wrap;html=1;" vertex="1" parent="1">
          <mxGeometry x="25" y="-480" width="785" height="1180" as="geometry" />
        </mxCell>
        <mxCell id="eINwbxXHJOCDrQ6c3ILT-7" value="&lt;div&gt;Oracle Cloud Infrastructure&amp;nbsp;&lt;span style=&quot;background-color: transparent; color: light-dark(rgb(0, 0, 0), rgb(255, 255, 255));&quot;&gt;(OCI) Compute Instance&lt;/span&gt;&lt;/div&gt;" style="swimlane;whiteSpace=wrap;html=1;" vertex="1" parent="1">
          <mxGeometry x="70" y="-140" width="680" height="760" as="geometry" />
        </mxCell>
        <mxCell id="eINwbxXHJOCDrQ6c3ILT-43" style="edgeStyle=orthogonalEdgeStyle;rounded=0;orthogonalLoop=1;jettySize=auto;html=1;entryX=0.75;entryY=0;entryDx=0;entryDy=0;" edge="1" parent="eINwbxXHJOCDrQ6c3ILT-7" source="eINwbxXHJOCDrQ6c3ILT-2" target="eINwbxXHJOCDrQ6c3ILT-1">
          <mxGeometry relative="1" as="geometry">
            <Array as="points">
              <mxPoint x="565" y="420" />
              <mxPoint x="565" y="420" />
            </Array>
          </mxGeometry>
        </mxCell>
        <mxCell id="eINwbxXHJOCDrQ6c3ILT-2" value="&lt;b&gt;oauth2-proxy&lt;/b&gt;&lt;div&gt;&lt;i&gt;(standalone reverse proxy for OAuth 2.0)&lt;/i&gt;&lt;/div&gt;" style="rounded=0;whiteSpace=wrap;html=1;" vertex="1" parent="eINwbxXHJOCDrQ6c3ILT-7">
          <mxGeometry x="350" y="320" width="280" height="70" as="geometry" />
        </mxCell>
        <mxCell id="eINwbxXHJOCDrQ6c3ILT-46" style="edgeStyle=orthogonalEdgeStyle;rounded=0;orthogonalLoop=1;jettySize=auto;html=1;entryX=0.5;entryY=1;entryDx=0;entryDy=0;" edge="1" parent="eINwbxXHJOCDrQ6c3ILT-7" source="eINwbxXHJOCDrQ6c3ILT-1" target="eINwbxXHJOCDrQ6c3ILT-29">
          <mxGeometry relative="1" as="geometry">
            <Array as="points">
              <mxPoint x="490" y="500" />
              <mxPoint x="170" y="500" />
            </Array>
          </mxGeometry>
        </mxCell>
        <mxCell id="eINwbxXHJOCDrQ6c3ILT-47" style="edgeStyle=orthogonalEdgeStyle;rounded=0;orthogonalLoop=1;jettySize=auto;html=1;" edge="1" parent="eINwbxXHJOCDrQ6c3ILT-7" source="eINwbxXHJOCDrQ6c3ILT-1" target="eINwbxXHJOCDrQ6c3ILT-27">
          <mxGeometry relative="1" as="geometry">
            <Array as="points">
              <mxPoint x="495" y="680" />
            </Array>
          </mxGeometry>
        </mxCell>
        <mxCell id="eINwbxXHJOCDrQ6c3ILT-1" value="&lt;b&gt;RHEL Cockpit&lt;/b&gt;&lt;div&gt;&lt;i&gt;(a browser-based administration tool for Linux)&lt;/i&gt;&lt;/div&gt;" style="rounded=0;whiteSpace=wrap;html=1;" vertex="1" parent="eINwbxXHJOCDrQ6c3ILT-7">
          <mxGeometry x="355" y="520" width="280" height="70" as="geometry" />
        </mxCell>
        <mxCell id="eINwbxXHJOCDrQ6c3ILT-16" value="&lt;b&gt;nginx&lt;/b&gt;&lt;div&gt;&lt;i&gt;(standalone web reverse proxy)&lt;/i&gt;&lt;/div&gt;" style="rounded=0;whiteSpace=wrap;html=1;" vertex="1" parent="eINwbxXHJOCDrQ6c3ILT-7">
          <mxGeometry x="185" y="120" width="280" height="60" as="geometry" />
        </mxCell>
        <mxCell id="eINwbxXHJOCDrQ6c3ILT-19" value="&lt;b&gt;runtime:&lt;/b&gt;&lt;div&gt;systemd service units&lt;/div&gt;" style="shape=document;whiteSpace=wrap;html=1;boundedLbl=1;size=0.2875;" vertex="1" parent="eINwbxXHJOCDrQ6c3ILT-7">
          <mxGeometry x="510" y="23" width="170" height="57" as="geometry" />
        </mxCell>
        <mxCell id="eINwbxXHJOCDrQ6c3ILT-24" value="&lt;b&gt;internal application&lt;/b&gt;&lt;div&gt;&lt;i&gt;processing a task&lt;/i&gt;&lt;/div&gt;" style="shape=process;whiteSpace=wrap;html=1;backgroundOutline=1;" vertex="1" parent="eINwbxXHJOCDrQ6c3ILT-7">
          <mxGeometry x="20" y="630" width="280" height="70" as="geometry" />
        </mxCell>
        <mxCell id="eINwbxXHJOCDrQ6c3ILT-26" value="&lt;b&gt;internal application&lt;/b&gt;&lt;div&gt;&lt;i&gt;processing a task&lt;/i&gt;&lt;/div&gt;" style="shape=process;whiteSpace=wrap;html=1;backgroundOutline=1;" vertex="1" parent="eINwbxXHJOCDrQ6c3ILT-7">
          <mxGeometry x="30" y="640" width="280" height="70" as="geometry" />
        </mxCell>
        <mxCell id="eINwbxXHJOCDrQ6c3ILT-27" value="&lt;b&gt;internal application&lt;/b&gt;&lt;div&gt;&lt;i&gt;processing a task&lt;/i&gt;&lt;/div&gt;" style="shape=process;whiteSpace=wrap;html=1;backgroundOutline=1;" vertex="1" parent="eINwbxXHJOCDrQ6c3ILT-7">
          <mxGeometry x="40" y="650" width="280" height="70" as="geometry" />
        </mxCell>
        <mxCell id="eINwbxXHJOCDrQ6c3ILT-23" value="&lt;b&gt;web-application&lt;/b&gt;&amp;nbsp;&lt;div&gt;&lt;i&gt;exposing webservice on a port&lt;/i&gt;&lt;/div&gt;" style="shape=process;whiteSpace=wrap;html=1;backgroundOutline=1;" vertex="1" parent="eINwbxXHJOCDrQ6c3ILT-7">
          <mxGeometry x="10" y="360" width="280" height="70" as="geometry" />
        </mxCell>
        <mxCell id="eINwbxXHJOCDrQ6c3ILT-28" value="&lt;b&gt;web-application&lt;/b&gt;&amp;nbsp;&lt;div&gt;&lt;i&gt;exposing webservice on a port&lt;/i&gt;&lt;/div&gt;" style="shape=process;whiteSpace=wrap;html=1;backgroundOutline=1;" vertex="1" parent="eINwbxXHJOCDrQ6c3ILT-7">
          <mxGeometry x="20" y="370" width="280" height="70" as="geometry" />
        </mxCell>
        <mxCell id="eINwbxXHJOCDrQ6c3ILT-29" value="&lt;b&gt;web-application&lt;/b&gt;&amp;nbsp;&lt;div&gt;&lt;i&gt;exposing webservice on a port&lt;/i&gt;&lt;/div&gt;" style="shape=process;whiteSpace=wrap;html=1;backgroundOutline=1;" vertex="1" parent="eINwbxXHJOCDrQ6c3ILT-7">
          <mxGeometry x="30" y="380" width="280" height="70" as="geometry" />
        </mxCell>
        <mxCell id="eINwbxXHJOCDrQ6c3ILT-34" value="exposed access" style="text;html=1;align=center;verticalAlign=middle;resizable=0;points=[];autosize=1;strokeColor=default;fillColor=none;dashed=1;" vertex="1" parent="eINwbxXHJOCDrQ6c3ILT-7">
          <mxGeometry y="273" width="110" height="30" as="geometry" />
        </mxCell>
        <mxCell id="eINwbxXHJOCDrQ6c3ILT-35" value="partly public access" style="text;html=1;align=center;verticalAlign=middle;resizable=0;points=[];autosize=1;strokeColor=default;fillColor=none;dashed=1;" vertex="1" parent="eINwbxXHJOCDrQ6c3ILT-7">
          <mxGeometry x="331" y="274" width="130" height="30" as="geometry" />
        </mxCell>
        <mxCell id="eINwbxXHJOCDrQ6c3ILT-36" value="public access" style="text;html=1;align=center;verticalAlign=middle;resizable=0;points=[];autosize=1;strokeColor=none;fillColor=none;" vertex="1" parent="eINwbxXHJOCDrQ6c3ILT-7">
          <mxGeometry y="23" width="100" height="30" as="geometry" />
        </mxCell>
        <mxCell id="eINwbxXHJOCDrQ6c3ILT-37" value="OAuth protected public access" style="text;html=1;align=center;verticalAlign=middle;resizable=0;points=[];autosize=1;strokeColor=default;fillColor=none;dashed=1;" vertex="1" parent="eINwbxXHJOCDrQ6c3ILT-7">
          <mxGeometry x="333" y="430" width="190" height="30" as="geometry" />
        </mxCell>
        <mxCell id="eINwbxXHJOCDrQ6c3ILT-38" value="no access" style="text;html=1;align=center;verticalAlign=middle;resizable=0;points=[];autosize=1;strokeColor=default;fillColor=none;dashed=1;" vertex="1" parent="eINwbxXHJOCDrQ6c3ILT-7">
          <mxGeometry y="574" width="80" height="30" as="geometry" />
        </mxCell>
        <mxCell id="eINwbxXHJOCDrQ6c3ILT-40" style="edgeStyle=orthogonalEdgeStyle;rounded=0;orthogonalLoop=1;jettySize=auto;html=1;" edge="1" parent="eINwbxXHJOCDrQ6c3ILT-7" source="eINwbxXHJOCDrQ6c3ILT-16">
          <mxGeometry relative="1" as="geometry">
            <mxPoint x="330" y="260" as="targetPoint" />
            <Array as="points">
              <mxPoint x="330" y="210" />
              <mxPoint x="330" y="210" />
            </Array>
          </mxGeometry>
        </mxCell>
        <mxCell id="eINwbxXHJOCDrQ6c3ILT-41" value="exposes :port" style="text;html=1;align=center;verticalAlign=middle;resizable=0;points=[];autosize=1;strokeColor=none;fillColor=none;" vertex="1" parent="eINwbxXHJOCDrQ6c3ILT-7">
          <mxGeometry x="320" y="200" width="100" height="30" as="geometry" />
        </mxCell>
        <mxCell id="eINwbxXHJOCDrQ6c3ILT-51" style="edgeStyle=orthogonalEdgeStyle;rounded=0;orthogonalLoop=1;jettySize=auto;html=1;entryX=0.5;entryY=0;entryDx=0;entryDy=0;" edge="1" parent="1" source="eINwbxXHJOCDrQ6c3ILT-5" target="eINwbxXHJOCDrQ6c3ILT-16">
          <mxGeometry relative="1" as="geometry">
            <Array as="points">
              <mxPoint x="545" y="-80" />
              <mxPoint x="395" y="-80" />
            </Array>
          </mxGeometry>
        </mxCell>
        <mxCell id="eINwbxXHJOCDrQ6c3ILT-5" value="&lt;b&gt;Cloudflare&lt;/b&gt;&lt;div&gt;&lt;i&gt;DNS, TLS-Termination,&amp;nbsp;&lt;/i&gt;&lt;/div&gt;&lt;div&gt;&lt;i&gt;DDoS-Protection and more&lt;/i&gt;&lt;/div&gt;" style="shape=hexagon;perimeter=hexagonPerimeter2;whiteSpace=wrap;html=1;fixedSize=1;" vertex="1" parent="1">
          <mxGeometry x="460" y="-330" width="170" height="80" as="geometry" />
        </mxCell>
        <mxCell id="eINwbxXHJOCDrQ6c3ILT-54" style="edgeStyle=orthogonalEdgeStyle;rounded=0;orthogonalLoop=1;jettySize=auto;html=1;entryX=0;entryY=0.5;entryDx=0;entryDy=0;" edge="1" parent="1" source="eINwbxXHJOCDrQ6c3ILT-4" target="eINwbxXHJOCDrQ6c3ILT-20">
          <mxGeometry relative="1" as="geometry" />
        </mxCell>
        <mxCell id="eINwbxXHJOCDrQ6c3ILT-56" style="edgeStyle=orthogonalEdgeStyle;rounded=0;orthogonalLoop=1;jettySize=auto;html=1;" edge="1" parent="1" source="eINwbxXHJOCDrQ6c3ILT-4" target="eINwbxXHJOCDrQ6c3ILT-21">
          <mxGeometry relative="1" as="geometry" />
        </mxCell>
        <mxCell id="eINwbxXHJOCDrQ6c3ILT-4" value="GitHub" style="shape=hexagon;perimeter=hexagonPerimeter2;whiteSpace=wrap;html=1;fixedSize=1;" vertex="1" parent="1">
          <mxGeometry x="350" y="-440" width="120" height="50" as="geometry" />
        </mxCell>
        <mxCell id="eINwbxXHJOCDrQ6c3ILT-8" value="User" style="shape=umlActor;verticalLabelPosition=bottom;verticalAlign=top;html=1;outlineConnect=0;" vertex="1" parent="1">
          <mxGeometry x="70" y="-320" width="30" height="60" as="geometry" />
        </mxCell>
        <mxCell id="eINwbxXHJOCDrQ6c3ILT-52" style="edgeStyle=orthogonalEdgeStyle;rounded=0;orthogonalLoop=1;jettySize=auto;html=1;entryX=0;entryY=0.5;entryDx=0;entryDy=0;" edge="1" parent="1" source="eINwbxXHJOCDrQ6c3ILT-9" target="eINwbxXHJOCDrQ6c3ILT-5">
          <mxGeometry relative="1" as="geometry" />
        </mxCell>
        <mxCell id="eINwbxXHJOCDrQ6c3ILT-9" value="&lt;b&gt;Internet&lt;/b&gt;" style="ellipse;shape=cloud;whiteSpace=wrap;html=1;" vertex="1" parent="1">
          <mxGeometry x="220" y="-325" width="150" height="70" as="geometry" />
        </mxCell>
        <mxCell id="eINwbxXHJOCDrQ6c3ILT-14" value="" style="strokeColor=light-dark(#DDDDDD,#FFFFFF);shadow=0;strokeWidth=1;rounded=1;absoluteArcSize=1;arcSize=2;" vertex="1" parent="1">
          <mxGeometry x="70" y="-200" width="680" height="60" as="geometry" />
        </mxCell>
        <mxCell id="eINwbxXHJOCDrQ6c3ILT-15" value="&lt;font color=&quot;#000000&quot;&gt;OCI Security List&lt;/font&gt;&lt;br&gt;Cloud Firewall Rules" style="editableCssRules=.*;html=1;fontColor=#999999;shape=image;verticalLabelPosition=middle;verticalAlign=middle;labelPosition=right;align=left;spacingLeft=20;part=1;points=[];imageAspect=0;image=data:image/svg+xml,PHN2ZyB4bWxucz0iaHR0cDovL3d3dy53My5vcmcvMjAwMC9zdmciIHhtbG5zOnY9Imh0dHBzOi8vdmVjdGEuaW8vbmFubyIgd2lkdGg9IjIwIiBoZWlnaHQ9IjIwIiBmaWxsPSIjNDI4NWY0IiB2aWV3Qm94PSIwIDAgMjAgMjAiPiYjeGE7CTxzdHlsZSB0eXBlPSJ0ZXh0L2NzcyI+JiN4YTsJLnN0MHtmaWxsOiM0Mjg1ZjQ7fSYjeGE7CTwvc3R5bGU+JiN4YTsJPHBhdGggY2xhc3M9InN0MCIgZD0iTTAgMGg4Ljg5djIuMjJIMHptMCAxNy43OGg4Ljg5VjIwSDB6bTAtOC44OWg4Ljg5djIuMjJIMHpNMTEuMTEgMEgyMHYyLjIyaC04Ljg5em0wIDE3Ljc4SDIwVjIwaC04Ljg5em0wLTguODlIMjB2Mi4yMmgtOC44OXpNNS41NSA0LjQ0aDguODl2Mi4yMkg1LjU1em0wIDguODloOC44OXYyLjIySDUuNTV6TTAgNC40NGgzLjMzdjIuMjJIMHptMCA4Ljg5aDMuMzN2Mi4yMkgwem0xNi42Ny04Ljg5SDIwdjIuMjJoLTMuMzN6bTAgOC44OUgyMHYyLjIyaC0zLjMzeiIvPiYjeGE7PC9zdmc+;" vertex="1" parent="eINwbxXHJOCDrQ6c3ILT-14">
          <mxGeometry width="30" height="30" relative="1" as="geometry">
            <mxPoint x="15" y="15" as="offset" />
          </mxGeometry>
        </mxCell>
        <mxCell id="eINwbxXHJOCDrQ6c3ILT-20" value="OAuth App" style="rounded=0;whiteSpace=wrap;html=1;" vertex="1" parent="1">
          <mxGeometry x="500" y="-435" width="120" height="40" as="geometry" />
        </mxCell>
        <mxCell id="eINwbxXHJOCDrQ6c3ILT-71" style="edgeStyle=orthogonalEdgeStyle;rounded=0;orthogonalLoop=1;jettySize=auto;html=1;entryX=0.75;entryY=0;entryDx=0;entryDy=0;" edge="1" parent="1" source="eINwbxXHJOCDrQ6c3ILT-21" target="eINwbxXHJOCDrQ6c3ILT-7">
          <mxGeometry relative="1" as="geometry">
            <Array as="points">
              <mxPoint x="260" y="-300" />
              <mxPoint x="580" y="-300" />
            </Array>
          </mxGeometry>
        </mxCell>
        <mxCell id="eINwbxXHJOCDrQ6c3ILT-21" value="CI/CD Pipeline" style="rounded=0;whiteSpace=wrap;html=1;" vertex="1" parent="1">
          <mxGeometry x="200" y="-435" width="120" height="40" as="geometry" />
        </mxCell>
        <mxCell id="eINwbxXHJOCDrQ6c3ILT-30" value="" style="endArrow=none;dashed=1;html=1;dashPattern=1 3;strokeWidth=2;rounded=0;" edge="1" parent="1">
          <mxGeometry width="50" height="50" relative="1" as="geometry">
            <mxPoint x="70" y="120" as="sourcePoint" />
            <mxPoint x="750" y="120" as="targetPoint" />
          </mxGeometry>
        </mxCell>
        <mxCell id="eINwbxXHJOCDrQ6c3ILT-31" value="" style="endArrow=none;dashed=1;html=1;dashPattern=1 3;strokeWidth=2;rounded=0;exitX=0.5;exitY=1;exitDx=0;exitDy=0;" edge="1" parent="1" source="eINwbxXHJOCDrQ6c3ILT-7">
          <mxGeometry width="50" height="50" relative="1" as="geometry">
            <mxPoint x="400" y="280" as="sourcePoint" />
            <mxPoint x="400" y="120" as="targetPoint" />
          </mxGeometry>
        </mxCell>
        <mxCell id="eINwbxXHJOCDrQ6c3ILT-32" value="" style="endArrow=none;dashed=1;html=1;dashPattern=1 3;strokeWidth=2;rounded=0;" edge="1" parent="1">
          <mxGeometry width="50" height="50" relative="1" as="geometry">
            <mxPoint x="400" y="280" as="sourcePoint" />
            <mxPoint x="750" y="280" as="targetPoint" />
          </mxGeometry>
        </mxCell>
        <mxCell id="eINwbxXHJOCDrQ6c3ILT-33" value="" style="endArrow=none;dashed=1;html=1;dashPattern=1 3;strokeWidth=2;rounded=0;" edge="1" parent="1">
          <mxGeometry width="50" height="50" relative="1" as="geometry">
            <mxPoint x="70" y="420" as="sourcePoint" />
            <mxPoint x="400" y="420" as="targetPoint" />
          </mxGeometry>
        </mxCell>
        <mxCell id="eINwbxXHJOCDrQ6c3ILT-53" style="edgeStyle=orthogonalEdgeStyle;rounded=0;orthogonalLoop=1;jettySize=auto;html=1;" edge="1" parent="1" source="eINwbxXHJOCDrQ6c3ILT-2" target="eINwbxXHJOCDrQ6c3ILT-20">
          <mxGeometry relative="1" as="geometry">
            <Array as="points">
              <mxPoint x="770" y="215" />
              <mxPoint x="770" y="-415" />
            </Array>
          </mxGeometry>
        </mxCell>
        <mxCell id="eINwbxXHJOCDrQ6c3ILT-65" style="edgeStyle=orthogonalEdgeStyle;rounded=0;orthogonalLoop=1;jettySize=auto;html=1;entryX=0;entryY=0.5;entryDx=0;entryDy=0;" edge="1" parent="1" source="eINwbxXHJOCDrQ6c3ILT-57" target="eINwbxXHJOCDrQ6c3ILT-21">
          <mxGeometry relative="1" as="geometry" />
        </mxCell>
        <mxCell id="eINwbxXHJOCDrQ6c3ILT-57" value="Dev / Admin" style="shape=umlActor;verticalLabelPosition=bottom;verticalAlign=top;html=1;outlineConnect=0;" vertex="1" parent="1">
          <mxGeometry x="70" y="-445" width="30" height="60" as="geometry" />
        </mxCell>
        <mxCell id="eINwbxXHJOCDrQ6c3ILT-64" style="edgeStyle=orthogonalEdgeStyle;rounded=0;orthogonalLoop=1;jettySize=auto;html=1;entryX=0.067;entryY=0.5;entryDx=0;entryDy=0;entryPerimeter=0;" edge="1" parent="1" source="eINwbxXHJOCDrQ6c3ILT-8" target="eINwbxXHJOCDrQ6c3ILT-9">
          <mxGeometry relative="1" as="geometry" />
        </mxCell>
        <mxCell id="eINwbxXHJOCDrQ6c3ILT-70" value="builds via cloud-init.sh" style="text;html=1;align=center;verticalAlign=middle;resizable=0;points=[];autosize=1;strokeColor=none;fillColor=none;" vertex="1" parent="1">
          <mxGeometry x="260" y="-370" width="140" height="30" as="geometry" />
        </mxCell>
        <mxCell id="eINwbxXHJOCDrQ6c3ILT-44" value="authorize access" style="text;html=1;align=center;verticalAlign=middle;resizable=0;points=[];autosize=1;strokeColor=none;fillColor=none;" vertex="1" parent="1">
          <mxGeometry x="640" y="-420" width="110" height="30" as="geometry" />
        </mxCell>
      </root>
    </mxGraphModel>
  </diagram>
</mxfile>
